<?xml version="1.0" standalone="no"?>
<!DOCTYPE svg PUBLIC "-//W3C//DTD SVG 20010904//EN"
 "http://www.w3.org/TR/2001/REC-SVG-20010904/DTD/svg10.dtd">
<svg version="1.0" xmlns="http://www.w3.org/2000/svg"
 width="512.000000pt" height="512.000000pt" viewBox="0 0 512.000000 512.000000"
 preserveAspectRatio="xMidYMid meet">

<g transform="translate(0.000000,512.000000) scale(0.100000,-0.100000)"
fill="#d5ced3" stroke="none">
<path d="M1333 4705 c-102 -31 -180 -104 -230 -212 -23 -48 -28 -76 -31 -159
l-4 -102 -29 -6 c-37 -7 -105 -69 -132 -120 -21 -40 -22 -52 -22 -341 0 -289
1 -301 22 -341 21 -39 87 -107 113 -116 9 -3 -32 -265 -161 -1036 l-173 -1033
-66 8 c-260 32 -493 -73 -582 -262 -103 -221 18 -456 288 -557 58 -22 69 -23
583 -26 563 -3 629 1 718 44 67 32 136 103 170 173 35 74 44 218 18 307 -76
266 -353 460 -605 424 -120 -17 -230 -92 -282 -193 l-23 -45 -38 32 -38 32
146 874 c80 481 147 885 150 898 l5 22 475 0 475 0 0 75 0 75 -465 0 c-367 0
-464 3 -460 13 2 6 9 45 15 85 l12 72 849 0 849 0 0 75 0 75 -896 0 -896 0
-29 29 -29 29 0 267 0 267 29 29 29 29 1472 0 1472 0 29 -29 29 -29 0 -267 0
-267 -29 -29 -29 -29 -496 0 -496 0 0 -75 0 -75 449 0 449 0 12 -72 c6 -40 13
-79 15 -85 4 -10 -93 -13 -460 -13 l-465 0 0 -75 0 -75 475 0 475 0 5 -22 c3
-13 72 -426 154 -918 l148 -895 -22 -30 c-108 -143 -135 -343 -68 -488 l32
-67 -1160 0 -1159 0 0 -75 0 -76 1363 3 1362 3 62 22 c195 71 349 236 398 428
53 206 -44 404 -232 475 -114 43 -279 24 -400 -46 l-41 -24 -6 28 c-3 15 -80
475 -171 1022 -127 761 -163 996 -153 999 7 2 36 27 64 55 70 72 74 93 74 404
0 294 -7 335 -65 395 -49 50 -88 69 -160 74 l-60 5 -1 92 c-1 119 -26 186
-100 265 -72 78 -149 113 -259 119 -148 8 -278 -44 -400 -160 -79 -75 -130
-152 -162 -247 l-22 -66 -153 -3 -154 -2 -13 75 c-26 159 -137 312 -268 372
-76 35 -180 42 -254 18 -103 -34 -205 -121 -255 -217 l-15 -29 -40 51 c-73 93
-184 166 -296 195 -70 18 -173 18 -230 0z m262 -171 c74 -36 151 -112 191
-189 58 -111 62 -105 -60 -105 l-105 0 -120 158 c-65 86 -117 161 -114 166 3
5 38 6 77 4 51 -4 88 -13 131 -34z m2051 26 l28 -11 -154 -154 -155 -155 -98
0 -99 0 7 28 c18 73 115 194 195 240 95 56 209 77 276 52z m-1446 -160 l0
-160 -100 0 c-99 0 -100 0 -100 24 0 43 36 142 70 190 25 37 108 106 127 106
2 0 3 -72 3 -160z m256 77 c44 -49 76 -119 89 -194 l7 -43 -101 0 -101 0 0
161 0 160 31 -18 c17 -10 51 -40 75 -66z m-1102 -132 l76 -100 -92 -3 c-50 -1
-97 -1 -105 2 -19 8 -17 135 3 187 20 48 12 53 118 -86z m2450 -5 c1 -102 3
-100 -116 -100 l-103 0 100 100 c113 113 119 113 119 0z m-2370 -3179 c87 -43
164 -120 207 -207 31 -63 34 -76 34 -160 0 -51 -4 -96 -8 -100 -4 -5 -119 103
-255 239 -200 200 -244 249 -232 258 8 5 53 8 100 7 73 -3 95 -8 154 -37z
m3388 31 c14 -6 -33 -58 -232 -257 -278 -278 -265 -271 -265 -135 0 63 5 85
32 142 75 160 218 258 373 257 41 0 83 -4 92 -7z m-4166 -107 c28 -8 73 -29
100 -47 45 -31 114 -108 114 -129 0 -5 -143 -9 -350 -9 -265 0 -350 3 -350 12
0 22 51 86 88 112 116 80 254 101 398 61z m649 -264 c135 -135 243 -246 242
-248 -13 -12 -110 -20 -156 -12 -118 19 -250 116 -309 227 -41 77 -59 180 -43
241 7 23 14 41 16 40 2 -2 115 -114 250 -248z m3662 122 c-17 -223 -266 -425
-469 -382 l-51 11 249 249 249 249 14 -32 c8 -21 11 -55 8 -95z m-4119 -234
c-83 -149 -348 -205 -532 -113 -57 28 -111 76 -132 116 -8 15 -14 29 -14 33 0
3 158 5 351 5 l350 0 -23 -41z m184 -106 c21 -20 38 -41 38 -45 0 -4 -34 -8
-76 -8 l-75 0 32 45 c18 25 35 45 38 45 3 0 22 -17 43 -37z"/>
<path d="M2160 1925 l0 -75 80 0 80 0 0 75 0 75 -80 0 -80 0 0 -75z"/>
<path d="M2480 1925 l0 -75 80 0 80 0 0 75 0 75 -80 0 -80 0 0 -75z"/>
<path d="M2800 1925 l0 -75 80 0 80 0 0 75 0 75 -80 0 -80 0 0 -75z"/>
</g>
</svg>
