<?xml version="1.0" standalone="no"?>
<!DOCTYPE svg PUBLIC "-//W3C//DTD SVG 20010904//EN"
 "http://www.w3.org/TR/2001/REC-SVG-20010904/DTD/svg10.dtd">
<svg version="1.0" xmlns="http://www.w3.org/2000/svg"
 width="512.000000pt" height="512.000000pt" viewBox="0 0 512.000000 512.000000"
 preserveAspectRatio="xMidYMid meet">

<g transform="translate(0.000000,512.000000) scale(0.100000,-0.100000)"
fill="#000 " stroke="none">
<path d="M3287 5109 c-560 -65 -1052 -412 -1298 -914 -269 -553 -211 -1208
153 -1702 l58 -78 -170 -170 -170 -170 -62 62 c-35 33 -73 66 -85 72 -30 15
-99 14 -131 -3 -15 -8 -361 -349 -768 -758 -814 -815 -780 -777 -806 -927 -24
-142 21 -282 126 -387 105 -105 245 -150 387 -126 150 26 112 -8 927 806 409
407 750 753 758 768 17 32 18 101 3 131 -6 12 -39 50 -72 85 l-62 62 170 170
170 170 65 -48 c205 -154 454 -261 715 -309 113 -21 416 -24 525 -5 361 63
662 216 909 462 247 245 403 542 468 893 21 115 24 417 5 527 -90 516 -380
932 -825 1188 -286 163 -661 240 -990 201z m443 -314 c168 -34 349 -110 500
-210 96 -64 291 -259 355 -355 102 -154 173 -325 212 -510 24 -118 24 -382 0
-500 -59 -284 -179 -506 -381 -705 -201 -199 -415 -313 -696 -372 -118 -24
-382 -24 -500 0 -283 59 -502 178 -705 381 -198 199 -313 415 -372 696 -24
118 -24 382 0 500 59 281 174 496 372 696 225 227 493 358 815 398 67 8 326
-4 400 -19z m-1970 -3040 l105 -105 -108 -108 -107 -107 -107 107 -108 108
105 105 c58 58 107 105 110 105 3 0 52 -47 110 -105z m-428 -422 c54 -54 98
-102 98 -108 0 -17 -883 -892 -917 -909 -122 -61 -258 75 -197 197 17 34 892
917 909 917 5 0 54 -44 107 -97z"/>
<path d="M3662 4380 c-167 -23 -381 -114 -544 -230 -372 -265 -616 -746 -555
-1095 42 -239 216 -427 443 -481 40 -9 111 -16 169 -16 558 2 1139 548 1206
1133 10 88 9 118 -4 194 -41 233 -211 422 -431 479 -74 20 -205 27 -284 16z
m146 -296 c28 -4 52 -10 52 -14 0 -3 -17 -14 -37 -24 -21 -10 -88 -51 -149
-91 -176 -117 -268 -230 -339 -420 -57 -150 -99 -208 -207 -282 -97 -66 -258
-157 -265 -149 -10 9 -5 147 7 200 33 146 133 326 255 455 154 163 374 291
553 321 64 11 70 11 130 4z m274 -281 c14 -115 -40 -299 -133 -449 -73 -120
-243 -290 -363 -363 -154 -95 -326 -146 -453 -134 -29 3 -53 9 -53 12 0 4 17
15 37 25 21 10 88 51 149 91 176 117 268 230 339 420 55 145 96 203 191 271
62 45 262 163 275 164 4 0 9 -17 11 -37z"/>
<path d="M3900 1490 c-548 -76 -904 -392 -877 -776 24 -333 309 -587 770 -686
148 -32 408 -31 557 1 496 109 792 401 767 757 -23 331 -311 588 -762 684
-114 24 -351 34 -455 20z m405 -314 c142 -31 272 -88 358 -157 47 -37 111
-108 104 -116 -2 -2 -58 10 -123 28 -90 23 -150 32 -247 36 -155 7 -217 -6
-386 -80 -105 -45 -125 -50 -207 -55 -63 -3 -114 1 -165 12 -80 18 -252 65
-258 71 -6 7 49 67 98 106 94 75 268 144 426 169 84 13 316 5 400 -14z m319
-550 c72 -20 132 -38 134 -41 7 -7 -40 -59 -94 -103 -68 -56 -198 -116 -319
-149 -91 -24 -117 -26 -275 -26 -157 0 -185 3 -275 27 -169 44 -323 130 -395
220 -16 22 -29 41 -27 43 2 2 60 -11 128 -28 94 -24 154 -33 249 -36 144 -6
199 5 340 64 177 74 176 74 295 69 87 -3 137 -11 239 -40z"/>
</g>
</svg>
