<?xml version="1.0" standalone="no"?>
<!DOCTYPE svg PUBLIC "-//W3C//DTD SVG 20010904//EN"
 "http://www.w3.org/TR/2001/REC-SVG-20010904/DTD/svg10.dtd">
<svg version="1.0" xmlns="http://www.w3.org/2000/svg"
 width="744.000000pt" height="267.000000pt" viewBox="0 0 744.000000 267.000000"
 preserveAspectRatio="xMidYMid meet">

<g transform="translate(0.000000,267.000000) scale(0.100000,-0.100000)"
fill="#000000" stroke="none">
<path d="M1095 2123 c-60 -6 -172 -41 -240 -76 -214 -107 -362 -286 -427 -514
-31 -111 -31 -305 0 -416 93 -329 378 -567 708 -592 410 -31 765 240 848 647
66 322 -88 671 -370 840 -161 96 -319 130 -519 111z m229 -299 c90 -23 172
-71 240 -140 64 -64 123 -165 133 -229 l6 -35 93 0 c85 0 94 -2 108 -22 21
-29 21 -117 0 -146 -14 -20 -23 -22 -108 -22 l-93 0 -11 -47 c-37 -161 -194
-312 -368 -357 -249 -64 -509 76 -606 325 -29 76 -36 214 -14 299 70 273 352
443 620 374z"/>
<path d="M1064 1762 c-201 -71 -318 -235 -316 -442 1 -100 23 -173 77 -254
168 -253 559 -263 738 -18 175 238 95 564 -170 689 -71 35 -86 38 -178 41 -77
2 -112 -2 -151 -16z m185 -197 c68 -34 160 -125 189 -186 34 -69 46 -146 32
-197 -12 -46 -27 -57 -64 -48 -40 10 -121 91 -156 158 -70 132 -101 162 -196
187 -23 6 -53 21 -68 32 -26 21 -27 22 -9 42 50 56 176 62 272 12z m-263 -80
c20 -14 42 -25 48 -25 34 0 89 -24 115 -51 16 -16 49 -64 72 -106 54 -97 97
-145 160 -177 l49 -24 -26 -21 c-53 -42 -158 -41 -248 3 -152 74 -256 249
-226 378 7 26 14 48 16 48 2 0 20 -11 40 -25z"/>
<path d="M6141 1860 c-139 -29 -262 -162 -290 -315 -6 -32 -11 -78 -11 -102
l0 -43 -44 0 c-37 0 -45 -4 -50 -22 -13 -52 -9 -58 43 -58 l48 0 7 -221 c9
-256 6 -269 -64 -269 -36 0 -40 -3 -40 -25 l0 -25 205 0 205 0 0 25 c0 22 -4
25 -38 25 -70 0 -72 6 -72 263 l0 226 88 3 87 3 3 38 3 37 -90 0 -91 0 0 139
c0 163 5 192 36 226 34 37 67 32 105 -14 50 -63 114 -77 162 -34 19 18 23 64
7 94 -23 43 -124 66 -209 49z"/>
<path d="M6608 1733 c-9 -10 -41 -60 -73 -112 -51 -86 -62 -121 -36 -121 20 0
213 143 221 164 8 23 -4 66 -23 78 -22 14 -74 8 -89 -9z"/>
<path d="M2581 1409 c-130 -40 -221 -169 -229 -325 -6 -111 14 -170 82 -240
41 -42 63 -56 111 -69 87 -26 188 -15 282 29 82 39 116 77 91 102 -13 13 -19
13 -52 -7 -57 -33 -149 -37 -206 -7 -38 19 -51 34 -79 91 -33 65 -35 75 -35
175 -1 91 2 112 20 142 47 80 111 78 156 -5 45 -85 125 -112 167 -59 25 32 26
46 5 90 -27 57 -89 86 -192 90 -48 2 -102 -1 -121 -7z"/>
<path d="M3186 1401 c-143 -47 -239 -169 -178 -224 19 -17 67 -22 97 -11 28
11 47 61 40 109 -7 41 -5 44 23 59 44 22 98 20 122 -4 18 -18 20 -31 18 -93
l-3 -72 -112 -56 c-126 -62 -147 -78 -174 -131 -48 -94 3 -218 90 -218 50 0
126 25 173 56 47 32 52 34 62 17 48 -86 163 -98 238 -23 21 21 38 45 38 54 0
24 -28 31 -49 12 -25 -23 -50 -20 -56 7 -3 12 -9 120 -13 240 l-7 217 -38 38
c-37 37 -38 37 -125 39 -64 2 -102 -2 -146 -16z m134 -392 c0 -55 -4 -108 -10
-118 -5 -10 -23 -24 -40 -31 -29 -12 -33 -11 -58 13 -22 22 -26 36 -26 79 0
64 20 99 78 133 22 14 44 25 49 25 4 0 7 -45 7 -101z"/>
<path d="M4679 1404 c-52 -16 -129 -79 -164 -134 -63 -99 -74 -274 -23 -361
54 -91 119 -135 217 -146 79 -8 171 11 245 50 70 37 97 70 74 93 -13 13 -19
13 -51 -6 -51 -30 -135 -37 -192 -15 -88 33 -127 117 -129 275 -1 89 2 110 20
140 48 82 110 78 159 -10 17 -30 42 -60 55 -67 39 -21 90 -12 113 18 17 23 18
32 8 61 -25 75 -108 119 -225 117 -34 0 -82 -7 -107 -15z"/>
<path d="M5310 1406 c-91 -25 -169 -78 -194 -131 -33 -68 -10 -115 55 -115 62
1 92 43 83 113 -6 43 -5 46 26 62 41 21 108 15 128 -12 8 -12 12 -41 10 -88
l-3 -70 -113 -56 c-127 -64 -146 -78 -174 -133 -25 -50 -21 -134 9 -174 42
-57 159 -50 255 15 38 25 54 31 57 21 9 -28 60 -67 94 -73 60 -12 107 3 149
45 21 21 38 45 38 54 0 25 -28 31 -50 11 -10 -9 -27 -15 -37 -13 -24 4 -31 60
-32 273 -1 191 -9 222 -70 262 -28 19 -47 23 -110 22 -42 0 -96 -6 -121 -13z
m94 -527 c-40 -44 -87 -31 -105 30 -22 75 8 144 79 180 l37 19 3 -105 c2 -87
0 -109 -14 -124z"/>
<path d="M6439 1401 c-78 -30 -116 -67 -157 -149 -35 -72 -37 -81 -37 -172 1
-112 19 -162 85 -234 56 -60 111 -81 220 -81 70 0 93 4 130 24 54 28 116 85
137 125 14 27 14 31 -2 43 -16 11 -23 8 -56 -22 -64 -58 -145 -70 -219 -32
-70 35 -110 109 -110 204 l0 43 188 2 187 3 -1 46 c-3 90 -69 180 -153 208
-51 17 -159 13 -212 -8z m138 -49 c17 -11 43 -76 43 -107 0 -18 -7 -28 -26
-35 -30 -12 -151 -13 -157 -2 -11 17 23 108 48 129 26 23 69 30 92 15z"/>
<path d="M3630 1379 c0 -13 10 -23 30 -31 17 -5 35 -18 40 -28 6 -10 10 -98
10 -196 0 -209 7 -241 70 -305 39 -40 52 -48 97 -54 84 -11 149 10 210 67 l31
30 7 -47 c4 -25 13 -49 20 -51 12 -5 242 50 252 60 15 15 -9 36 -41 36 -25 0
-38 6 -46 21 -8 13 -10 102 -8 270 l3 249 -142 0 -143 0 0 -25 c0 -19 5 -25
23 -25 52 0 55 -11 63 -210 6 -157 4 -190 -9 -215 -22 -43 -50 -65 -91 -72
-30 -5 -42 -1 -61 17 -39 36 -48 109 -43 332 l4 198 -138 0 c-133 0 -138 -1
-138 -21z"/>
</g>
</svg>
