<?xml version="1.0" standalone="no"?>
<!DOCTYPE svg PUBLIC "-//W3C//DTD SVG 20010904//EN"
 "http://www.w3.org/TR/2001/REC-SVG-20010904/DTD/svg10.dtd">
<svg version="1.0" xmlns="http://www.w3.org/2000/svg"
 width="1075.000000pt" height="279.000000pt" viewBox="0 0 1075.000000 279.000000"
 preserveAspectRatio="xMidYMid meet">
<metadata>
Created by potrace 1.16, written by Peter Selinger 2001-2019
</metadata>
<g transform="translate(0.000000,279.000000) scale(0.100000,-0.100000)"
fill="#000000" stroke="none">
<path d="M1079 2460 c-84 -15 -219 -68 -301 -117 -196 -117 -351 -321 -409
-538 -33 -120 -33 -357 -1 -475 70 -256 234 -454 484 -585 82 -43 68 -29 287
-294 46 -56 87 -99 91 -94 5 4 54 64 109 133 56 69 117 143 135 166 23 27 48
44 77 53 24 7 81 33 125 58 340 189 523 564 459 943 -29 178 -95 317 -220 462
-100 117 -280 228 -440 273 -68 19 -322 29 -396 15z m389 -455 c153 -46 245
-217 212 -398 -35 -198 -219 -412 -411 -478 -96 -33 -218 -37 -293 -9 -92 35
-168 117 -197 212 -30 99 4 269 77 389 77 128 230 244 374 285 63 17 177 17
238 -1z"/>
<path d="M1274 1945 c-103 -18 -184 -65 -279 -160 -111 -111 -165 -225 -165
-349 0 -62 15 -136 28 -136 4 0 20 26 37 57 36 70 114 149 180 184 28 15 84
34 125 44 148 33 250 106 306 221 35 71 30 94 -26 121 -60 28 -120 33 -206 18z"/>
<path d="M1551 1754 c-59 -113 -174 -194 -330 -230 -87 -21 -144 -49 -195 -98
-46 -46 -110 -163 -104 -192 5 -30 82 -66 153 -71 79 -7 197 30 284 88 153
102 261 282 261 434 0 52 -15 121 -28 129 -4 2 -23 -24 -41 -60z"/>
<path d="M10082 2088 c-129 -145 -202 -230 -202 -233 0 -3 51 -5 113 -5 l113
0 118 95 c65 52 139 113 165 135 l46 39 -162 1 -163 0 -28 -32z"/>
<path d="M9128 2076 c-85 -30 -127 -56 -164 -103 -55 -68 -80 -141 -87 -248
l-2 -40 -72 -3 -73 -3 0 -124 0 -124 73 -3 72 -3 3 -347 2 -348 165 0 165 0 0
350 0 349 113 3 112 3 3 123 3 122 -121 0 c-118 0 -120 0 -120 23 0 51 21 98
53 118 31 20 48 21 152 7 16 -3 25 12 53 85 53 143 53 140 -10 162 -33 11 -91
19 -153 21 -85 3 -110 0 -167 -20z"/>
<path d="M3315 2019 c-271 -62 -445 -211 -515 -439 -53 -173 -49 -293 13 -459
57 -149 161 -261 313 -336 106 -53 194 -69 359 -69 123 1 150 4 219 27 43 14
106 42 140 63 65 39 157 121 155 139 -1 10 -193 187 -211 193 -5 2 -28 -14
-52 -36 -25 -23 -68 -53 -98 -69 -49 -25 -62 -28 -163 -28 l-111 0 -69 40
c-126 73 -186 201 -172 364 9 96 32 154 89 216 70 77 138 108 249 113 120 6
204 -26 301 -115 l26 -25 106 97 c58 53 106 100 106 104 0 9 -76 81 -123 115
-49 36 -166 84 -247 102 -72 15 -253 17 -315 3z"/>
<path d="M4475 1724 c-137 -21 -259 -58 -302 -92 l-23 -17 49 -95 c26 -53 50
-102 53 -110 5 -13 8 -13 29 -1 114 69 273 89 375 46 39 -16 84 -79 84 -117
l0 -28 -147 0 c-170 0 -253 -15 -341 -59 -105 -53 -148 -131 -140 -255 11
-164 123 -259 323 -273 132 -9 239 25 291 92 14 19 30 35 35 35 5 0 9 -27 9
-60 l0 -60 155 0 155 0 0 303 c0 346 -7 407 -56 494 -54 97 -137 155 -264 182
-60 13 -236 22 -285 15z m259 -590 c23 -9 20 -66 -4 -114 -13 -25 -37 -49 -65
-65 -114 -67 -251 -7 -230 101 11 59 65 80 212 83 39 0 78 -2 87 -5z"/>
<path d="M6925 1714 c-109 -24 -188 -67 -264 -143 -102 -102 -141 -198 -141
-350 0 -219 136 -401 355 -473 58 -19 92 -23 200 -23 169 0 250 24 339 99 64
55 132 144 119 157 -4 4 -64 36 -132 70 -106 52 -125 59 -133 46 -42 -76 -100
-110 -188 -111 -85 -1 -142 29 -185 98 -28 46 -30 56 -30 147 0 93 1 99 31
141 45 62 104 93 179 92 35 0 73 -7 90 -17 34 -18 84 -64 102 -93 11 -18 17
-16 138 46 70 36 129 68 131 71 8 14 -74 120 -124 159 -105 84 -321 121 -487
84z"/>
<path d="M7955 1716 c-106 -17 -190 -42 -242 -72 l-43 -25 57 -113 56 -113 35
24 c81 54 273 77 354 41 40 -18 86 -78 90 -118 l3 -25 -175 -6 c-184 -6 -237
-17 -332 -65 -148 -75 -174 -299 -48 -425 68 -68 137 -92 270 -93 140 -1 191
14 253 76 26 26 50 48 52 48 3 0 5 -27 5 -60 l0 -60 156 0 155 0 -3 348 -3
347 -36 75 c-63 131 -164 196 -342 220 -98 13 -160 12 -262 -4z m313 -624 c7
-100 -83 -170 -213 -163 -64 3 -111 72 -93 138 14 54 72 72 223 69 l80 -1 3
-43z"/>
<path d="M9895 1712 c-96 -26 -140 -46 -202 -93 -114 -88 -174 -208 -181 -364
-8 -169 29 -268 143 -380 113 -112 268 -163 465 -152 63 3 132 14 172 27 64
20 187 93 195 116 4 11 -153 184 -167 184 -5 0 -28 -13 -52 -29 -43 -29 -122
-51 -182 -51 -92 0 -210 70 -235 141 l-10 29 359 0 359 0 7 37 c8 44 -8 180
-29 241 -18 52 -81 144 -124 182 -46 41 -117 81 -182 103 -83 28 -246 32 -336
9z m251 -241 c48 -22 91 -73 100 -119 l7 -32 -208 0 -207 0 7 28 c11 48 52 98
97 121 55 27 146 28 204 2z"/>
<path d="M5310 1388 c0 -238 4 -336 14 -373 57 -214 233 -322 466 -286 89 14
154 41 198 83 l32 32 0 -57 0 -57 160 0 160 0 0 490 0 490 -164 0 -164 0 -4
-277 c-4 -309 -6 -323 -71 -380 -45 -39 -98 -57 -150 -50 -54 7 -87 33 -117
93 -25 48 -25 53 -28 332 l-3 282 -165 0 -164 0 0 -322z"/>
</g>
</svg>
