<?xml version="1.0" standalone="no"?>
<!DOCTYPE svg PUBLIC "-//W3C//DTD SVG 20010904//EN"
 "http://www.w3.org/TR/2001/REC-SVG-20010904/DTD/svg10.dtd">
<svg version="1.0" xmlns="http://www.w3.org/2000/svg"
 width="512.000000pt" height="512.000000pt" viewBox="0 0 512.000000 512.000000"
 preserveAspectRatio="xMidYMid meet">

<g transform="translate(0.000000,512.000000) scale(0.100000,-0.100000)"
fill="#000000" stroke="none">
<path d="M2010 5033 c-251 -18 -326 -41 -420 -129 -76 -71 -102 -136 -155
-384 -25 -118 -49 -217 -53 -221 -4 -3 -56 -23 -116 -43 -264 -90 -446 -219
-514 -363 -22 -47 -27 -73 -27 -133 0 -65 5 -85 33 -142 55 -112 199 -228 377
-303 l63 -27 6 -50 c8 -56 41 -129 80 -175 35 -41 131 -90 194 -99 39 -5 52
-11 52 -23 0 -70 86 -229 164 -304 38 -36 147 -109 180 -120 6 -2 5 -26 -4
-65 -11 -54 -16 -63 -39 -68 -100 -21 -222 -63 -314 -106 l-108 -52 -249 249
-248 248 -59 -5 c-71 -7 -148 -43 -199 -94 -38 -39 -84 -125 -84 -159 0 -11
-20 -47 -45 -80 -54 -72 -100 -177 -115 -265 -7 -42 -10 -196 -8 -442 3 -362
4 -378 24 -404 45 -60 66 -69 187 -72 l112 -4 0 -167 0 -167 37 -76 c70 -140
187 -216 349 -226 l89 -5 0 -238 0 -239 1177 0 1178 0 -138 138 -137 137 0
313 c0 171 2 312 5 312 3 0 159 -84 346 -186 188 -103 367 -196 398 -207 80
-30 251 -29 335 2 154 55 276 179 328 331 l23 65 0 1110 0 1110 -27 51 c-40
76 -70 107 -140 145 -58 31 -70 34 -148 33 -69 0 -94 -5 -135 -24 -100 -49
-168 -145 -181 -254 -6 -48 -10 -56 -36 -67 -42 -17 -103 -92 -118 -143 -8
-30 -11 -95 -8 -198 3 -147 5 -156 34 -218 17 -36 50 -87 74 -113 l43 -48 -62
-332 c-34 -183 -64 -340 -67 -349 -4 -14 -47 16 -205 143 -377 302 -602 423
-967 518 l-147 38 -15 63 c-9 41 -11 65 -4 67 5 2 39 20 73 41 125 73 224 201
258 333 l17 67 50 7 c61 8 158 57 192 98 39 46 72 119 80 175 l6 50 63 27
c178 75 322 191 377 303 28 57 33 77 33 142 0 60 -5 86 -27 133 -32 68 -111
154 -192 209 -78 54 -241 131 -346 164 -47 15 -88 30 -92 33 -4 4 -28 103 -53
221 -26 118 -57 239 -70 268 -48 106 -164 198 -282 222 -117 24 -499 37 -683
23z m501 -163 c148 -12 201 -25 253 -65 31 -24 92 -122 82 -132 -2 -2 -50 3
-107 11 -195 29 -480 40 -697 27 -109 -6 -244 -18 -301 -27 -57 -8 -105 -13
-107 -11 -2 2 8 27 22 55 29 58 84 102 149 121 95 28 474 39 706 21z m-41
-320 c146 -10 244 -22 356 -41 l60 -10 16 -77 c9 -42 15 -78 14 -79 -1 -2 -62
6 -135 17 -368 54 -775 52 -1119 -6 -52 -9 -95 -14 -97 -12 -2 1 4 37 13 79
l16 76 90 16 c226 40 531 54 786 37z m186 -334 c478 -61 846 -215 927 -388 54
-115 -35 -236 -256 -344 l-89 -43 -26 32 c-15 18 -36 40 -47 50 -31 28 -115
66 -162 73 -40 6 -43 8 -43 38 0 18 -7 58 -15 91 -66 251 -320 403 -568 339
-33 -8 -78 -24 -99 -35 -38 -19 -38 -19 -76 0 -179 91 -399 55 -543 -88 -81
-81 -139 -209 -139 -307 0 -30 -3 -32 -43 -38 -78 -12 -153 -56 -208 -123
l-26 -31 -89 43 c-124 59 -206 122 -244 187 -49 87 -36 153 50 239 161 162
565 285 1055 323 108 8 526 -4 641 -18z m-501 -344 l85 -41 88 42 c80 39 93
42 167 42 64 0 89 -5 125 -24 61 -32 116 -86 148 -146 l27 -50 0 -375 c0 -299
-3 -381 -14 -405 l-14 -30 -11 61 c-37 193 -202 333 -393 334 l-43 0 0 80 0
80 -80 0 -80 0 0 -80 0 -80 -42 0 c-192 -1 -357 -141 -394 -334 l-11 -61 -14
30 c-11 24 -14 106 -14 405 0 374 0 375 24 420 42 81 115 143 201 171 14 5 55
7 92 5 54 -3 85 -11 153 -44z m-635 -592 c0 -177 1 -173 -63 -146 -125 52
-126 238 -2 292 66 29 65 31 65 -146z m1529 132 c49 -36 66 -70 66 -132 0 -44
-5 -66 -21 -86 -28 -39 -63 -63 -101 -70 l-33 -6 0 162 0 163 33 -7 c17 -3 43
-14 56 -24z m1439 -159 c14 -10 35 -32 46 -47 21 -27 21 -32 21 -1119 l0
-1092 -27 -57 c-34 -73 -113 -152 -183 -184 -69 -32 -171 -41 -241 -21 -29 7
-162 74 -298 147 l-246 134 24 41 c13 22 74 132 136 245 62 113 119 212 127
220 11 13 16 11 37 -10 l24 -25 -33 -170 c-17 -93 -31 -173 -29 -177 5 -8 144
-32 150 -25 3 2 60 299 128 658 l123 654 -63 65 c-92 95 -104 126 -104 288 0
128 1 134 25 157 15 16 36 25 55 25 51 0 80 -38 80 -105 l0 -55 80 0 80 0 0
56 c0 31 -5 74 -12 96 -14 48 -76 121 -118 138 -21 9 -30 19 -30 36 0 55 41
115 95 140 40 19 119 12 153 -13z m-2059 -143 c101 -29 155 -104 177 -242 8
-51 17 -108 20 -126 5 -32 4 -33 -63 -65 l-68 -32 -255 0 -255 0 -68 32 c-67
32 -68 33 -63 65 3 18 12 75 20 126 10 61 23 108 40 136 26 45 84 91 132 106
40 12 342 12 383 0z m-1412 -770 c-34 -27 -50 -43 -77 -77 l-21 -27 -99 99
c-92 91 -98 100 -89 124 14 36 48 71 84 87 30 13 30 13 129 -86 l100 -99 -27
-21z m1435 82 l15 -59 -114 -56 -113 -57 -113 57 -114 56 15 59 14 58 198 0
198 0 14 -58z m-1477 -597 c-71 -99 -138 -232 -179 -356 l-35 -104 -101 -3
-100 -3 0 354 c0 382 4 416 56 519 l26 51 193 -193 192 -192 -52 -73z m1052
-467 c-7 -4 -19 -8 -28 -8 -10 0 -41 -16 -70 -36 l-53 -35 -417 417 c-295 295
-416 422 -412 433 12 33 53 78 85 94 l33 16 437 -436 c291 -291 433 -440 425
-445z m41 797 c2 -2 -38 -28 -90 -59 -51 -30 -96 -52 -99 -48 -9 9 -71 164
-67 167 2 2 23 7 48 12 42 9 51 7 125 -30 44 -22 81 -41 83 -42z m587 58 c18
-11 -45 -170 -66 -165 -8 2 -52 27 -98 54 l-84 51 74 39 c62 32 81 37 117 33
24 -3 49 -8 57 -12z m490 -173 c66 -33 159 -86 208 -118 103 -68 366 -273 367
-285 0 -8 -233 -432 -282 -514 l-19 -32 -69 37 -70 37 0 98 0 97 -80 0 -80 0
0 -422 0 -423 -325 325 c-179 179 -325 331 -325 338 0 21 -30 74 -59 105 -27
30 -90 67 -113 67 -7 0 -118 105 -246 233 l-232 232 204 123 c112 67 210 122
216 122 7 0 106 -57 222 -126 115 -70 214 -122 218 -118 5 5 36 79 70 164 34
85 66 162 71 172 9 16 16 15 107 -17 53 -20 151 -62 217 -95z m-1427 -30 c33
-82 60 -150 59 -150 -1 0 -58 56 -127 125 l-124 124 54 25 c30 14 60 25 66 25
7 1 39 -66 72 -149z m-283 -520 l290 -290 -183 0 -182 0 0 80 0 80 -80 0 -80
0 0 -80 0 -80 -80 0 -80 0 0 -80 0 -80 417 0 417 0 82 80 82 80 116 0 c111 0
118 -1 141 -25 25 -24 25 -26 25 -215 0 -189 0 -191 -25 -215 l-24 -25 -592 0
c-435 0 -603 3 -633 12 -26 8 -60 31 -92 63 -68 68 -79 108 -71 273 9 219 60
395 164 575 30 52 90 137 96 137 1 0 133 -130 292 -290z m1603 -1248 l-122 -3
-230 230 -229 229 12 32 c6 18 11 69 11 114 l0 81 340 -340 340 -340 -122 -3z
m-523 168 l170 -170 -663 0 -662 0 0 160 0 160 463 1 c254 0 471 4 482 9 11 5
25 9 30 9 6 1 87 -76 180 -169z"/>
<path d="M1865 3575 c-50 -49 -15 -135 55 -135 41 0 80 39 80 80 0 41 -39 80
-80 80 -19 0 -40 -9 -55 -25z"/>
<path d="M2505 3575 c-50 -49 -15 -135 55 -135 19 0 40 9 55 25 16 15 25 36
25 55 0 19 -9 40 -25 55 -15 16 -36 25 -55 25 -19 0 -40 -9 -55 -25z"/>
<path d="M2160 1760 l0 -80 80 0 80 0 0 80 0 80 -80 0 -80 0 0 -80z"/>
</g>
</svg>
