<?xml version="1.0" standalone="no"?>
<!DOCTYPE svg PUBLIC "-//W3C//DTD SVG 20010904//EN"
 "http://www.w3.org/TR/2001/REC-SVG-20010904/DTD/svg10.dtd">
<svg version="1.0" xmlns="http://www.w3.org/2000/svg"
 width="512.000000pt" height="512.000000pt" viewBox="0 0 512.000000 512.000000"
 preserveAspectRatio="xMidYMid meet">

<g transform="translate(0.000000,512.000000) scale(0.100000,-0.100000)"
fill="#000000" stroke="none">
<path d="M2842 4599 c-145 -73 -148 -282 -6 -365 140 -82 314 21 314 186 0 54
-45 137 -93 168 -56 37 -154 42 -215 11z m142 -130 c36 -28 36 -80 0 -108 -34
-27 -62 -27 -91 1 -33 30 -31 80 3 107 15 12 34 21 44 21 10 0 29 -9 44 -21z"/>
<path d="M3931 4544 c-121 -126 -436 -477 -628 -702 -97 -114 -229 -261 -293
-328 -164 -171 -174 -188 -179 -290 -6 -154 45 -326 125 -413 55 -62 98 -80
213 -91 116 -11 214 -34 291 -67 106 -46 120 -81 75 -182 -30 -67 -23 -105 22
-122 44 -16 70 3 104 75 85 183 18 303 -212 380 -81 27 -238 56 -305 56 -52 0
-87 26 -120 91 -46 91 -76 267 -53 310 6 13 69 84 139 159 69 74 207 230 307
345 166 194 368 420 587 659 71 77 89 103 89 127 0 35 -17 55 -57 65 -26 6
-35 0 -105 -72z"/>
<path d="M2409 3460 c-44 -23 -96 -81 -116 -129 -10 -23 -13 -54 -10 -86 4
-46 9 -54 67 -107 70 -63 73 -79 26 -135 -37 -43 -41 -74 -16 -106 41 -52 92
-31 151 61 59 94 44 184 -45 258 -25 21 -46 47 -46 57 0 21 55 77 75 77 21 0
45 35 45 67 0 60 -61 80 -131 43z"/>
<path d="M4137 3152 c-22 -24 -21 -50 3 -142 27 -102 36 -224 21 -287 -28
-114 -112 -161 -266 -148 -76 6 -85 5 -104 -14 -39 -39 -22 -92 34 -111 19 -6
74 -11 123 -11 253 0 386 171 352 452 -13 111 -46 238 -67 261 -21 23 -75 23
-96 0z"/>
<path d="M3591 3113 c-19 -10 -43 -29 -53 -43 -41 -56 -42 -227 -2 -257 26
-19 68 -16 90 8 14 15 18 33 16 76 -1 31 0 64 4 75 5 18 7 18 44 -3 22 -12 55
-39 75 -59 l36 -37 -29 -6 c-53 -11 -64 -88 -18 -119 6 -4 62 -8 124 -8 99 0
114 2 132 20 11 11 20 31 20 44 0 49 -201 251 -296 297 -62 29 -103 33 -143
12z"/>
<path d="M2142 3053 c-80 -44 -132 -122 -132 -199 0 -57 21 -93 77 -135 59
-45 62 -61 19 -123 -42 -61 -45 -84 -13 -114 45 -43 96 -18 147 72 23 40 30
63 30 107 0 66 -23 107 -87 154 -23 16 -42 35 -42 41 -1 20 40 64 80 84 46 24
60 60 38 99 -18 33 -71 39 -117 14z"/>
<path d="M1240 2263 c-43 -7 -144 -45 -183 -70 -150 -95 -241 -260 -241 -438
1 -169 76 -316 209 -409 98 -69 179 -96 287 -96 l66 0 22 -72 c58 -192 180
-366 341 -488 l80 -60 -314 0 c-291 0 -315 -1 -330 -18 -24 -26 -21 -75 4 -98
21 -18 62 -19 1488 -22 1002 -2 1477 0 1502 8 51 14 71 60 42 98 l-20 27 -693
3 -693 2 44 31 c146 105 243 217 319 372 93 188 93 193 98 729 l3 466 -22 21
-23 21 -980 -1 c-540 -1 -992 -4 -1006 -6z m120 -163 c0 -16 -3 -30 -7 -30
-45 -1 -147 -26 -180 -45 -172 -101 -205 -338 -67 -480 54 -56 116 -85 195
-92 l59 -6 0 -35 0 -35 -59 6 c-141 15 -262 98 -317 219 -24 53 -28 76 -29
148 0 60 6 100 19 136 52 141 189 242 329 244 57 0 57 0 57 -30z m820 -165 c0
-177 -2 -195 -18 -204 -24 -13 -43 1 -56 41 -19 59 -97 71 -123 19 -4 -9 -10
-117 -13 -241 l-5 -225 -25 0 -25 0 -5 261 c-5 242 -7 264 -24 283 -15 16 -29
21 -55 19 -35 -3 -37 -5 -71 -78 -4 -8 -15 -15 -25 -15 -10 0 -21 7 -25 15
-34 73 -36 75 -71 78 -62 5 -73 -19 -79 -167 l-5 -126 -25 0 -25 0 -3 268 -2
267 340 0 340 0 0 -195z m948 -227 c-4 -410 -4 -425 -27 -493 -90 -273 -308
-483 -578 -557 -110 -30 -306 -30 -416 0 -165 45 -331 154 -433 286 -100 127
-174 320 -174 454 0 51 1 52 29 52 90 0 171 82 171 175 0 33 2 35 35 35 l35 0
0 -177 c0 -166 2 -181 23 -218 65 -114 236 -112 295 5 20 39 22 59 22 181 l0
136 51 5 c76 8 132 57 149 134 5 21 10 121 10 222 l0 182 406 0 405 0 -3 -422z
m-1768 52 l0 -170 -44 0 c-73 0 -142 61 -155 136 -9 48 1 99 26 133 25 34 98
71 140 71 l33 0 0 -170z"/>
</g>
</svg>
